<mxfile host="app.diagrams.net" modified="2022-11-17T10:27:51.115Z" agent="5.0 (Windows)" etag="aaqJY2dFHXsOCrBZe75c" version="20.5.3" type="github">
  <diagram name="Page-1" id="97916047-d0de-89f5-080d-49f4d83e522f">
    <mxGraphModel dx="1422" dy="752" grid="1" gridSize="10" guides="1" tooltips="1" connect="1" arrows="1" fold="1" page="1" pageScale="1.5" pageWidth="1169" pageHeight="827" background="none" math="0" shadow="0">
      <root>
        <mxCell id="0" />
        <mxCell id="1" parent="0" />
        <mxCell id="3" value="power subsystem" style="rounded=1;fillColor=#10739E;strokeColor=none;shadow=1;gradientColor=none;fontStyle=1;fontColor=#FFFFFF;fontSize=14;" parent="1" vertex="1">
          <mxGeometry x="661" y="345.5" width="220" height="60" as="geometry" />
        </mxCell>
        <mxCell id="4" value="generation" style="rounded=1;fillColor=#10739E;strokeColor=none;shadow=1;gradientColor=none;fontStyle=1;fontColor=#FFFFFF;fontSize=14;" parent="1" vertex="1">
          <mxGeometry x="450" y="455.5" width="200" height="60" as="geometry" />
        </mxCell>
        <mxCell id="5" value="storage" style="rounded=1;fillColor=#10739E;strokeColor=none;shadow=1;gradientColor=none;fontStyle=1;fontColor=#FFFFFF;fontSize=14;" parent="1" vertex="1">
          <mxGeometry x="672" y="455.5" width="200" height="60" as="geometry" />
        </mxCell>
        <mxCell id="6" value="consumption" style="rounded=1;fillColor=#10739E;strokeColor=none;shadow=1;gradientColor=none;fontStyle=1;fontColor=#FFFFFF;fontSize=14;" parent="1" vertex="1">
          <mxGeometry x="890" y="455.5" width="200" height="60" as="geometry" />
        </mxCell>
        <mxCell id="30" value="" style="edgeStyle=elbowEdgeStyle;elbow=vertical;strokeWidth=4;endArrow=block;endFill=1;fontStyle=1;strokeColor=#23445D;" parent="1" source="3" target="5" edge="1">
          <mxGeometry x="22" y="165.5" width="100" height="100" as="geometry">
            <mxPoint x="22" y="265.5" as="sourcePoint" />
            <mxPoint x="122" y="165.5" as="targetPoint" />
          </mxGeometry>
        </mxCell>
        <mxCell id="31" value="" style="edgeStyle=elbowEdgeStyle;elbow=vertical;strokeWidth=4;endArrow=block;endFill=1;fontStyle=1;strokeColor=#23445D;" parent="1" source="3" target="4" edge="1">
          <mxGeometry x="22" y="165.5" width="100" height="100" as="geometry">
            <mxPoint x="22" y="265.5" as="sourcePoint" />
            <mxPoint x="122" y="165.5" as="targetPoint" />
          </mxGeometry>
        </mxCell>
        <mxCell id="32" value="" style="edgeStyle=elbowEdgeStyle;elbow=vertical;strokeWidth=4;endArrow=block;endFill=1;fontStyle=1;strokeColor=#23445D;" parent="1" source="3" target="6" edge="1">
          <mxGeometry x="22" y="165.5" width="100" height="100" as="geometry">
            <mxPoint x="22" y="265.5" as="sourcePoint" />
            <mxPoint x="122" y="165.5" as="targetPoint" />
          </mxGeometry>
        </mxCell>
        <mxCell id="sAFaNX6CJds8Urd7VX-T-32" value="attitude determination&#xa;and control" style="rounded=1;fillColor=#10739E;strokeColor=none;shadow=1;gradientColor=none;fontStyle=1;fontColor=#FFFFFF;fontSize=14;" parent="1" vertex="1">
          <mxGeometry x="671" y="590" width="220" height="60" as="geometry" />
        </mxCell>
        <mxCell id="sAFaNX6CJds8Urd7VX-T-33" value="sensors" style="rounded=1;fillColor=#10739E;strokeColor=none;shadow=1;gradientColor=none;fontStyle=1;fontColor=#FFFFFF;fontSize=14;" parent="1" vertex="1">
          <mxGeometry x="460" y="700" width="200" height="60" as="geometry" />
        </mxCell>
        <mxCell id="sAFaNX6CJds8Urd7VX-T-34" value="actuators" style="rounded=1;fillColor=#10739E;strokeColor=none;shadow=1;gradientColor=none;fontStyle=1;fontColor=#FFFFFF;fontSize=14;" parent="1" vertex="1">
          <mxGeometry x="682" y="700" width="200" height="60" as="geometry" />
        </mxCell>
        <mxCell id="sAFaNX6CJds8Urd7VX-T-35" value="algorithms" style="rounded=1;fillColor=#10739E;strokeColor=none;shadow=1;gradientColor=none;fontStyle=1;fontColor=#FFFFFF;fontSize=14;" parent="1" vertex="1">
          <mxGeometry x="900" y="700" width="200" height="60" as="geometry" />
        </mxCell>
        <mxCell id="sAFaNX6CJds8Urd7VX-T-36" value="" style="edgeStyle=elbowEdgeStyle;elbow=vertical;strokeWidth=4;endArrow=block;endFill=1;fontStyle=1;strokeColor=#23445D;" parent="1" source="sAFaNX6CJds8Urd7VX-T-32" target="sAFaNX6CJds8Urd7VX-T-34" edge="1">
          <mxGeometry x="32" y="410" width="100" height="100" as="geometry">
            <mxPoint x="32" y="510" as="sourcePoint" />
            <mxPoint x="132" y="410" as="targetPoint" />
          </mxGeometry>
        </mxCell>
        <mxCell id="sAFaNX6CJds8Urd7VX-T-37" value="" style="edgeStyle=elbowEdgeStyle;elbow=vertical;strokeWidth=4;endArrow=block;endFill=1;fontStyle=1;strokeColor=#23445D;" parent="1" source="sAFaNX6CJds8Urd7VX-T-32" target="sAFaNX6CJds8Urd7VX-T-33" edge="1">
          <mxGeometry x="32" y="410" width="100" height="100" as="geometry">
            <mxPoint x="32" y="510" as="sourcePoint" />
            <mxPoint x="132" y="410" as="targetPoint" />
          </mxGeometry>
        </mxCell>
        <mxCell id="sAFaNX6CJds8Urd7VX-T-38" value="" style="edgeStyle=elbowEdgeStyle;elbow=vertical;strokeWidth=4;endArrow=block;endFill=1;fontStyle=1;strokeColor=#23445D;" parent="1" source="sAFaNX6CJds8Urd7VX-T-32" target="sAFaNX6CJds8Urd7VX-T-35" edge="1">
          <mxGeometry x="32" y="410" width="100" height="100" as="geometry">
            <mxPoint x="32" y="510" as="sourcePoint" />
            <mxPoint x="132" y="410" as="targetPoint" />
          </mxGeometry>
        </mxCell>
        <mxCell id="6-nnAtrnUBZbtaKDENRa-32" value="communication subsystem" style="rounded=1;fillColor=#10739E;strokeColor=none;shadow=1;gradientColor=none;fontStyle=1;fontColor=#FFFFFF;fontSize=14;" vertex="1" parent="1">
          <mxGeometry x="641" y="70" width="220" height="60" as="geometry" />
        </mxCell>
        <mxCell id="6-nnAtrnUBZbtaKDENRa-33" value="information source" style="rounded=1;fillColor=#10739E;strokeColor=none;shadow=1;gradientColor=none;fontStyle=1;fontColor=#FFFFFF;fontSize=14;" vertex="1" parent="1">
          <mxGeometry x="430" y="180" width="200" height="60" as="geometry" />
        </mxCell>
        <mxCell id="6-nnAtrnUBZbtaKDENRa-34" value="modulation" style="rounded=1;fillColor=#10739E;strokeColor=none;shadow=1;gradientColor=none;fontStyle=1;fontColor=#FFFFFF;fontSize=14;" vertex="1" parent="1">
          <mxGeometry x="652" y="180" width="200" height="60" as="geometry" />
        </mxCell>
        <mxCell id="6-nnAtrnUBZbtaKDENRa-35" value="antenna" style="rounded=1;fillColor=#10739E;strokeColor=none;shadow=1;gradientColor=none;fontStyle=1;fontColor=#FFFFFF;fontSize=14;" vertex="1" parent="1">
          <mxGeometry x="870" y="180" width="200" height="60" as="geometry" />
        </mxCell>
        <mxCell id="6-nnAtrnUBZbtaKDENRa-36" value="" style="edgeStyle=elbowEdgeStyle;elbow=vertical;strokeWidth=4;endArrow=block;endFill=1;fontStyle=1;strokeColor=#23445D;" edge="1" parent="1" source="6-nnAtrnUBZbtaKDENRa-32" target="6-nnAtrnUBZbtaKDENRa-34">
          <mxGeometry x="2" y="-110" width="100" height="100" as="geometry">
            <mxPoint x="2" y="-10" as="sourcePoint" />
            <mxPoint x="102" y="-110" as="targetPoint" />
          </mxGeometry>
        </mxCell>
        <mxCell id="6-nnAtrnUBZbtaKDENRa-37" value="" style="edgeStyle=elbowEdgeStyle;elbow=vertical;strokeWidth=4;endArrow=block;endFill=1;fontStyle=1;strokeColor=#23445D;" edge="1" parent="1" source="6-nnAtrnUBZbtaKDENRa-32" target="6-nnAtrnUBZbtaKDENRa-33">
          <mxGeometry x="2" y="-110" width="100" height="100" as="geometry">
            <mxPoint x="2" y="-10" as="sourcePoint" />
            <mxPoint x="102" y="-110" as="targetPoint" />
          </mxGeometry>
        </mxCell>
        <mxCell id="6-nnAtrnUBZbtaKDENRa-38" value="" style="edgeStyle=elbowEdgeStyle;elbow=vertical;strokeWidth=4;endArrow=block;endFill=1;fontStyle=1;strokeColor=#23445D;" edge="1" parent="1" source="6-nnAtrnUBZbtaKDENRa-32" target="6-nnAtrnUBZbtaKDENRa-35">
          <mxGeometry x="2" y="-110" width="100" height="100" as="geometry">
            <mxPoint x="2" y="-10" as="sourcePoint" />
            <mxPoint x="102" y="-110" as="targetPoint" />
          </mxGeometry>
        </mxCell>
      </root>
    </mxGraphModel>
  </diagram>
</mxfile>
